<?xml version="1.0" encoding="UTF-8"?>
<svg version="1.1" xmlns="http://www.w3.org/2000/svg" width="16" height="16">
<path d="M0 0 C1.98 1.65 3.96 3.3 6 5 C4.35 6.98 2.7 8.96 1 11 C0.67 10.01 0.34 9.02 0 8 C0.66 7.01 1.32 6.02 2 5 C1.34 4.34 0.68 3.68 0 3 C0 2.01 0 1.02 0 0 Z " fill="#0084FF" transform="translate(9,3)"/>
<path d="M0 0 C0.33 0.99 0.66 1.98 1 3 C0.01 4.485 0.01 4.485 -1 6 C-0.34 6.66 0.32 7.32 1 8 C0.67 8.99 0.34 9.98 0 11 C-1.65 9.02 -3.3 7.04 -5 5 C-3.35 3.35 -1.7 1.7 0 0 Z " fill="#0084FF" transform="translate(6,3)"/>
</svg>
